<svg xmlns="http://www.w3.org/2000/svg" viewBox="0 0 192 192" role="img" aria-labelledby="title desc">
  <title id="title">Salam Aidiladha icon</title>
  <desc id="desc">Monochrome pixel cow icon for the Aidiladha wishing card.</desc>
  <rect width="192" height="192" fill="#f7f7f7"/>
  <rect x="18" y="18" width="156" height="156" fill="none" stroke="#343536" stroke-width="8"/>
  <rect x="52" y="74" width="72" height="38" fill="#343536"/>
  <rect x="118" y="66" width="34" height="34" fill="#343536"/>
  <rect x="144" y="78" width="18" height="14" fill="#343536"/>
  <rect x="128" y="78" width="8" height="8" fill="#f7f7f7"/>
  <rect x="48" y="64" width="18" height="10" fill="#343536"/>
  <rect x="124" y="50" width="10" height="16" fill="#343536"/>
  <rect x="142" y="50" width="10" height="16" fill="#343536"/>
  <rect x="62" y="110" width="12" height="34" fill="#343536"/>
  <rect x="100" y="110" width="12" height="34" fill="#343536"/>
  <rect x="64" y="144" width="20" height="8" fill="#343536"/>
  <rect x="102" y="144" width="20" height="8" fill="#343536"/>
  <rect x="74" y="84" width="18" height="12" fill="#f7f7f7"/>
  <rect x="40" y="82" width="12" height="8" fill="#343536"/>
  <rect x="34" y="72" width="8" height="10" fill="#343536"/>
</svg>
