<svg xmlns="http://www.w3.org/2000/svg" viewBox="0 0 1200 630" role="img" aria-labelledby="title desc">
  <title id="title">Salam Aidiladha preview</title>
  <desc id="desc">Monochrome Aidiladha digital card preview with cow, fence, and pixel title.</desc>
  <rect width="1200" height="630" fill="#f7f7f7"/>
  <rect x="48" y="48" width="1104" height="534" fill="none" stroke="#343536" stroke-width="10"/>
  <g fill="#27272a">
    <rect x="176" y="118" width="24" height="24"/><rect x="200" y="118" width="24" height="24"/><rect x="224" y="118" width="24" height="24"/><rect x="152" y="142" width="24" height="24"/><rect x="152" y="166" width="24" height="24"/><rect x="176" y="190" width="24" height="24"/><rect x="200" y="190" width="24" height="24"/><rect x="224" y="190" width="24" height="24"/><rect x="248" y="214" width="24" height="24"/><rect x="248" y="238" width="24" height="24"/><rect x="152" y="262" width="24" height="24"/><rect x="176" y="262" width="24" height="24"/><rect x="200" y="262" width="24" height="24"/><rect x="224" y="262" width="24" height="24"/>
    <rect x="320" y="118" width="24" height="24"/><rect x="344" y="118" width="24" height="24"/><rect x="368" y="118" width="24" height="24"/><rect x="296" y="142" width="24" height="24"/><rect x="392" y="142" width="24" height="24"/><rect x="296" y="166" width="24" height="24"/><rect x="392" y="166" width="24" height="24"/><rect x="296" y="190" width="24" height="24"/><rect x="320" y="190" width="24" height="24"/><rect x="344" y="190" width="24" height="24"/><rect x="368" y="190" width="24" height="24"/><rect x="392" y="190" width="24" height="24"/><rect x="296" y="214" width="24" height="24"/><rect x="392" y="214" width="24" height="24"/><rect x="296" y="238" width="24" height="24"/><rect x="392" y="238" width="24" height="24"/><rect x="296" y="262" width="24" height="24"/><rect x="392" y="262" width="24" height="24"/>
    <rect x="464" y="118" width="24" height="168"/><rect x="488" y="262" width="24" height="24"/><rect x="512" y="262" width="24" height="24"/><rect x="536" y="262" width="24" height="24"/>
    <rect x="608" y="118" width="24" height="168"/><rect x="632" y="118" width="24" height="24"/><rect x="656" y="142" width="24" height="24"/><rect x="680" y="118" width="24" height="24"/><rect x="704" y="118" width="24" height="168"/><rect x="656" y="166" width="24" height="24"/>
    <rect x="776" y="118" width="24" height="168"/><rect x="800" y="118" width="24" height="24"/><rect x="824" y="118" width="24" height="24"/><rect x="848" y="118" width="24" height="24"/><rect x="800" y="190" width="24" height="24"/><rect x="824" y="190" width="24" height="24"/><rect x="848" y="190" width="24" height="24"/><rect x="800" y="262" width="24" height="24"/><rect x="824" y="262" width="24" height="24"/><rect x="848" y="262" width="24" height="24"/>
    <rect x="944" y="118" width="24" height="168"/><rect x="968" y="118" width="24" height="24"/><rect x="992" y="142" width="24" height="24"/><rect x="1016" y="166" width="24" height="24"/><rect x="1040" y="142" width="24" height="24"/><rect x="1064" y="118" width="24" height="24"/><rect x="1088" y="118" width="24" height="168"/>
  </g>
  <text x="600" y="348" fill="#71717a" font-family="Menlo, Consolas, monospace" font-size="34" text-anchor="middle" letter-spacing="2">KAD UCAPAN INTERAKTIF</text>
  <line x1="88" y1="466" x2="1112" y2="466" stroke="#343536" stroke-width="6"/>
  <g fill="#343536">
    <rect x="188" y="406" width="44" height="88"/><rect x="176" y="430" width="12" height="44"/><rect x="232" y="430" width="12" height="44"/><rect x="172" y="396" width="64" height="16"/><rect x="188" y="380" width="32" height="20"/><rect x="156" y="482" width="96" height="8"/>
    <rect x="444" y="384" width="150" height="76"/><rect x="582" y="368" width="72" height="62"/><rect x="636" y="394" width="36" height="26"/><rect x="462" y="460" width="24" height="58"/><rect x="548" y="460" width="24" height="58"/><rect x="472" y="518" width="44" height="12"/><rect x="556" y="518" width="44" height="12"/><rect x="426" y="402" width="22" height="14"/><rect x="598" y="390" width="12" height="12" fill="#f7f7f7"/><rect x="612" y="340" width="14" height="28"/><rect x="644" y="340" width="14" height="28"/>
    <rect x="844" y="376" width="18" height="92"/><rect x="914" y="376" width="18" height="92"/><rect x="820" y="414" width="136" height="16"/><rect x="820" y="454" width="136" height="16"/><rect x="834" y="352" width="38" height="24"/><rect x="904" y="352" width="38" height="24"/>
  </g>
  <text x="600" y="562" fill="#71717a" font-family="Menlo, Consolas, monospace" font-size="24" text-anchor="middle">BUILT BY HAIKAL FADZLI</text>
</svg>
